<svg width="512" height="512" viewBox="0 0 512 512" fill="none" xmlns="http://www.w3.org/2000/svg">
<path d="M319.7 292.5C323.8 283.8 326.7 274.7 328.3 265.1C328.5 264.1 328.6 263.1 328.8 262.1C329.2 259.3 329.5 256.5 329.7 253.7C329.9 250.5 330 247.2 330 244V243.9C329.4 198 351.4 158.9 393.7 131C411.6 119.2 429.3 111.8 441.6 107.6C420.8 95.2999 393.4 92.6999 362.9 100.4C325.6 109.7 288.2 133.1 257.3 166.3C264.7 174.5 271.6 183.2 278.1 192.5C299.8 224 314.2 258.6 319.7 292.5Z" fill="#ffffff" id="id_101"></path>
<path d="M167.8 276.099C121.8 267.199 88.3002 237.299 70.9002 189.599C63.5002 169.499 60.5002 150.399 59.3002 137.399C41.8002 155.499 32.3002 182.299 32.4002 214.299C32.5002 253.999 47.3002 296.799 73.8002 334.799C113 390.999 169.4 423.899 217.5 423.899C234.4 423.899 250.3 419.799 264.1 411.199C263.8 401.699 262 377.299 252.6 351.799C236.9 309.499 208.3 283.999 167.8 276.099Z" fill="#ffffff" id="id_102"></path>
<path d="M240.7 172.2C240.5 172 240.3 171.8 240.2 171.7C218.1 148.6 192.6 131.2 166 121.3C150.4 115.5 135.2 112.6 121 112.6C103.8 112.6 88 116.8 74.5 125.2C74.8 134.7 76.6 159.1 86 184.6C101.7 227 130.2 252.5 170.8 260.4C216.8 269.3 250.3 299.2 267.7 346.9C275.1 367 278.1 386.1 279.3 399.1C280.8 397.5 282.3 395.9 283.7 394.2C298.4 376.3 306.2 351.5 306.1 322.3C306 282.6 291.2 239.8 264.7 201.8C257.3 191.1 249.3 181.2 240.7 172.2Z" fill="#ffffff" id="id_103"></path>
<path d="M456.6 119.6C447.5 122.2 424.4 129.7 401.9 144.7C364.2 169.8 345.3 203.1 345.8 243.8C345.8 247.4 345.8 251 345.5 254.7C345.3 257.9 345 261.1 344.5 264.3C344.3 265.4 344.2 266.6 344 267.7C340.8 286.5 333.5 303.9 322.1 319.4C322.1 320.3 322.1 321.1 322.1 322C322.2 347.5 316.8 370.2 306.5 388.8C346 380.7 387.5 355.6 420.7 319.2C452 284.8 472.5 244.4 478.4 205.6C483.7 169.8 476 139.5 456.6 119.6Z" fill="#ffffff" id="id_104"></path>
</svg>