<svg width="512" height="512" viewBox="0 0 512 512" fill="none" xmlns="http://www.w3.org/2000/svg">
<g clip-path="url(#clip0_30:397)">
<path d="M467.359 405.333H44.6401C36.399 405.381 28.3063 403.14 21.2646 398.858C14.223 394.576 8.50907 388.422 4.76015 381.083C1.08857 373.924 -0.522046 365.887 0.107974 357.866C0.737995 349.846 3.58388 342.158 8.32815 335.661L114.463 189.261V189.256C118.636 183.55 124.096 178.91 130.399 175.711C136.702 172.512 143.671 170.845 150.739 170.845H150.775C157.837 170.838 164.801 172.498 171.101 175.688C177.401 178.877 182.86 183.508 187.035 189.204L209.082 219.485L277.832 125.016C282.013 119.326 287.475 114.7 293.775 111.511C300.075 108.323 307.037 106.662 314.098 106.662C321.159 106.662 328.12 108.323 334.42 111.511C340.72 114.7 346.182 119.326 350.363 125.016L503.625 335.6C508.384 342.093 511.245 349.781 511.888 357.805C512.531 365.83 510.931 373.875 507.266 381.043C503.521 388.394 497.805 394.558 490.758 398.848C483.71 403.137 475.609 405.382 467.359 405.333V405.333ZM149 214.307L42.8691 360.7C43.2601 362.664 44.2281 362.664 44.6401 362.664H467.359C467.734 362.704 468.112 362.634 468.446 362.46C468.78 362.287 469.056 362.019 469.239 361.69L315.864 150.125C315.642 149.877 315.37 149.678 315.066 149.542C314.761 149.406 314.432 149.336 314.099 149.336C313.765 149.336 313.436 149.406 313.132 149.542C312.828 149.678 312.555 149.877 312.333 150.125L226.333 268.292C224.354 271.012 221.759 273.225 218.762 274.751C215.764 276.277 212.448 277.073 209.084 277.073C205.721 277.074 202.404 276.279 199.406 274.754C196.408 273.228 193.813 271.016 191.833 268.297L152.533 214.313C152.329 214.044 152.062 213.83 151.754 213.69C151.447 213.551 151.11 213.49 150.773 213.513H150.768C150.431 213.489 150.094 213.55 149.786 213.688C149.478 213.826 149.209 214.038 149.002 214.305L149 214.307Z" fill="#ffffff" id="id_101"></path>
</g>
<defs>
<clipPath id="clip0_30:397">
<rect width="512" height="512" fill="white" id="id_102"></rect>
</clipPath>
</defs>
</svg>