<svg id="Layer_1" data-name="Layer 1" xmlns="http://www.w3.org/2000/svg" viewBox="0 0 128 128"><defs><style>.cls-1{fill:#2d3e50;}</style></defs><title>b</title><path class="cls-1" d="M33.959,58.35092a5.09821,5.09821,0,0,0-.26613,6.77022,2.11932,2.11932,0,0,0,3.23836.17411,5.23174,5.23174,0,0,0,.66906-6.6384A2.20548,2.20548,0,0,0,33.959,58.35092Z" id="id_104" style="fill: rgb(255, 255, 255);"></path><path class="cls-1" d="M55.87148,72.15a5.20251,5.20251,0,0,0-.47258,6.79261,2.21808,2.21808,0,0,0,3.39258.2338,5.17587,5.17587,0,0,0,.68648-6.49414A2.21,2.21,0,0,0,55.87148,72.15Z" id="id_105" style="fill: rgb(255, 255, 255);"></path><path class="cls-1" d="M118.93258,39.69424l-.22384-.22386a53.84981,53.84981,0,0,0-17.137-10.894c-1.26848-.52233-2.537-.99489-3.78059-1.44259v-.07463A10.18266,10.18266,0,0,0,87.74279,17.01075L60.7564,16.63766a13.12436,13.12436,0,0,0-9.52607,3.88007L6.16181,65.56138a9.30728,9.30728,0,0,0,0,13.15741L36.108,108.64011a9.30727,9.30727,0,0,0,13.15743,0L94.30906,63.59647a13.191,13.191,0,0,0,2.93494-4.477,47.35848,47.35848,0,0,0,12.80921,1.91517c9.60068-.04975,12.78433-4.25316,13.829-6.76526C124.92681,51.78215,125.673,46.559,118.93258,39.69424ZM30.39235,66.82488a8.96137,8.96137,0,0,1,.684-10.73237,5.86035,5.86035,0,0,1,9.158.0572,8.7216,8.7216,0,0,1-1.54954,12.34908A5.84216,5.84216,0,0,1,30.39235,66.82488Zm10.15285,14.906c-.74617,1.19138-1.03468,1.25854-2.231.5248-1.90521-1.1889-1.91515-1.19635-.74864-3.06177q7.41691-11.83423,14.84872-23.666c.62928-1.00732.98-1.077,1.96989-.47505.48749.28353.95509.57206,1.39782.84814a1.24978,1.24978,0,0,1-.06716,1.62913q-2.66382,4.25316-5.34006,8.51626Q45.45375,73.88487,40.5452,81.73083Zm19.955.674a5.67807,5.67807,0,0,1-7.76511-1.077c-3.28065-3.74078-2.39022-10.123,1.74355-12.66a5.67437,5.67437,0,0,1,7.19056.99489A8.68439,8.68439,0,0,1,60.50021,82.40486ZM116.5946,51.235c-.84566,2.01466-9.924,3.80545-23.70325-1.94a53.19527,53.19527,0,0,1-10.86918-6.044c-.0995.12436-.22386.24872-.32334.37308a7.65894,7.65894,0,1,1,2.18876-4.3029,53.68929,53.68929,0,0,0,10.27224,5.59626c1.34311.54718,2.63645,1.04462,3.88007,1.46745l-.14923-10.8443c.22386.09948.42283.17411.64667.27359a46.88,46.88,0,0,1,14.6,9.20273l.14924.14924C116.52,48.47414,116.86819,50.58828,116.5946,51.235Z" id="id_106" style="fill: rgb(255, 255, 255);"></path></svg>